<?xml version="1.0" encoding="UTF-8"?>
<svg version="1.1" xmlns="http://www.w3.org/2000/svg" width="32" height="32">
<path d="M0 0 C1.06734375 -0.00257812 2.1346875 -0.00515625 3.234375 -0.0078125 C4.91273437 0.00378906 4.91273437 0.00378906 6.625 0.015625 C7.74390625 0.00789062 8.8628125 0.00015625 10.015625 -0.0078125 C11.08296875 -0.00523438 12.1503125 -0.00265625 13.25 0 C14.23226563 0.00225586 15.21453125 0.00451172 16.2265625 0.00683594 C18.625 0.265625 18.625 0.265625 20.625 2.265625 C20.88378906 4.6640625 20.88378906 4.6640625 20.890625 7.640625 C20.89449219 9.24164062 20.89449219 9.24164062 20.8984375 10.875 C20.89070313 11.99390625 20.88296875 13.1128125 20.875 14.265625 C20.88273437 15.38453125 20.89046875 16.5034375 20.8984375 17.65625 C20.89585938 18.72359375 20.89328125 19.7909375 20.890625 20.890625 C20.88836914 21.87289063 20.88611328 22.85515625 20.88378906 23.8671875 C20.625 26.265625 20.625 26.265625 18.625 28.265625 C16.2265625 28.52441406 16.2265625 28.52441406 13.25 28.53125 C12.18265625 28.53382812 11.1153125 28.53640625 10.015625 28.5390625 C8.33726563 28.52746094 8.33726563 28.52746094 6.625 28.515625 C5.50609375 28.52335937 4.3871875 28.53109375 3.234375 28.5390625 C2.16703125 28.53648438 1.0996875 28.53390625 0 28.53125 C-0.98226563 28.52899414 -1.96453125 28.52673828 -2.9765625 28.52441406 C-5.375 28.265625 -5.375 28.265625 -7.375 26.265625 C-7.63378906 23.8671875 -7.63378906 23.8671875 -7.640625 20.890625 C-7.64320312 19.82328125 -7.64578125 18.7559375 -7.6484375 17.65625 C-7.63683594 15.97789063 -7.63683594 15.97789063 -7.625 14.265625 C-7.63273438 13.14671875 -7.64046875 12.0278125 -7.6484375 10.875 C-7.64585938 9.80765625 -7.64328125 8.7403125 -7.640625 7.640625 C-7.63836914 6.65835937 -7.63611328 5.67609375 -7.63378906 4.6640625 C-7.10415251 -0.24456913 -4.21168741 0.00967251 0 0 Z " fill="#E31D2C" transform="translate(9.375,1.734375)"/>
<path d="M0 0 C1.39895508 -0.01836914 1.39895508 -0.01836914 2.82617188 -0.03710938 C4.16325195 -0.04000977 4.16325195 -0.04000977 5.52734375 -0.04296875 C6.348396 -0.04707764 7.16944824 -0.05118652 8.01538086 -0.05541992 C10.0625 0.1875 10.0625 0.1875 12.0625 2.1875 C12.0625 3.1775 12.0625 4.1675 12.0625 5.1875 C9.4225 5.5175 6.7825 5.8475 4.0625 6.1875 C5.0525 7.6725 5.0525 7.6725 6.0625 9.1875 C6.67670709 13.22371805 6.40605123 14.70861041 4 18.0625 C1.0625 20.1875 1.0625 20.1875 -2.5 20.75 C-5.9375 20.1875 -5.9375 20.1875 -8.375 18.625 C-10.49168511 15.32297123 -10.28778204 13.04060248 -9.9375 9.1875 C-9.6075 8.1975 -9.2775 7.2075 -8.9375 6.1875 C-9.9275 6.1875 -10.9175 6.1875 -11.9375 6.1875 C-10.54248603 -1.58472067 -7.18323895 0.00494373 0 0 Z " fill="#EAB388" transform="translate(15.9375,3.8125)"/>
<path d="M0 0 C0.90492188 0.02320312 1.80984375 0.04640625 2.7421875 0.0703125 C4.10730469 0.09738281 4.10730469 0.09738281 5.5 0.125 C6.19867188 0.14820312 6.89734375 0.17140625 7.6171875 0.1953125 C7.6171875 0.8553125 7.6171875 1.5153125 7.6171875 2.1953125 C4.9771875 2.5253125 2.3371875 2.8553125 -0.3828125 3.1953125 C-1.0428125 4.8453125 -1.7028125 6.4953125 -2.3828125 8.1953125 C-1.3928125 8.1953125 -0.4028125 8.1953125 0.6171875 8.1953125 C0.58238281 8.88238281 0.54757813 9.56945313 0.51171875 10.27734375 C0.48464844 11.17839844 0.45757813 12.07945313 0.4296875 13.0078125 C0.39488281 13.90113281 0.36007813 14.79445313 0.32421875 15.71484375 C0.40680547 18.23823264 0.40680547 18.23823264 1.9921875 19.9765625 C3.84506277 21.36621895 5.35034094 21.80447689 7.6171875 22.1953125 C7.6171875 24.1753125 7.6171875 26.1553125 7.6171875 28.1953125 C5.99254908 28.24926728 4.36740209 28.28808445 2.7421875 28.3203125 C1.83726563 28.34351562 0.93234375 28.36671875 0 28.390625 C-2.3828125 28.1953125 -2.3828125 28.1953125 -4.3828125 26.1953125 C-4.64160156 23.796875 -4.64160156 23.796875 -4.6484375 20.8203125 C-4.65101562 19.75296875 -4.65359375 18.685625 -4.65625 17.5859375 C-4.64464844 15.90757813 -4.64464844 15.90757813 -4.6328125 14.1953125 C-4.64054688 13.07640625 -4.64828125 11.9575 -4.65625 10.8046875 C-4.65367188 9.73734375 -4.65109375 8.67 -4.6484375 7.5703125 C-4.64618164 6.58804687 -4.64392578 5.60578125 -4.64160156 4.59375 C-4.27993542 1.24185546 -3.37425589 0.27657835 0 0 Z " fill="#024028" transform="translate(6.3828125,1.8046875)"/>
<path d="M0 0 C2.29141286 -0.05384521 4.58318188 -0.09272087 6.875 -0.125 C8.78925781 -0.15980469 8.78925781 -0.15980469 10.7421875 -0.1953125 C14 0 14 0 16 2 C16.25878906 4.3984375 16.25878906 4.3984375 16.265625 7.375 C16.26949219 8.97601562 16.26949219 8.97601562 16.2734375 10.609375 C16.26570313 11.72828125 16.25796875 12.8471875 16.25 14 C16.25773437 15.11890625 16.26546875 16.2378125 16.2734375 17.390625 C16.27085938 18.45796875 16.26828125 19.5253125 16.265625 20.625 C16.26336914 21.60726563 16.26111328 22.58953125 16.25878906 23.6015625 C16 26 16 26 14 28 C10.7421875 28.1953125 10.7421875 28.1953125 6.875 28.125 C4.95300781 28.09792969 4.95300781 28.09792969 2.9921875 28.0703125 C1.51105469 28.03550781 1.51105469 28.03550781 0 28 C0 27.34 0 26.68 0 26 C0.68707031 25.96261719 1.37414063 25.92523437 2.08203125 25.88671875 C2.98308594 25.82097656 3.88414063 25.75523438 4.8125 25.6875 C5.70582031 25.62949219 6.59914063 25.57148438 7.51953125 25.51171875 C10.41653813 24.91406851 11.19193777 24.29103112 13 22 C13.42632292 19.99386906 13.42632292 19.99386906 13.328125 17.8046875 C13.32296875 17.00675781 13.3178125 16.20882813 13.3125 15.38671875 C13.291875 14.55785156 13.27125 13.72898437 13.25 12.875 C13.24484375 12.03839844 13.2396875 11.20179687 13.234375 10.33984375 C13.56554253 6.35096919 13.56554253 6.35096919 12 3 C9.98405418 2.76572222 7.961526 2.58663876 5.9375 2.4375 C4.83277344 2.35371094 3.72804688 2.26992187 2.58984375 2.18359375 C1.73519531 2.12300781 0.88054688 2.06242188 0 2 C0 1.34 0 0.68 0 0 Z " fill="#8A131F" transform="translate(14,2)"/>
<path d="M0 0 C3.3 0 6.6 0 10 0 C10.36090226 7.33834586 10.36090226 7.33834586 8.875 10.0625 C6.009198 11.495401 4.00451848 10.84910305 1 10 C-0.60725635 6.78548731 -0.05748185 3.56387464 0 0 Z " fill="#CF6956" transform="translate(9,11)"/>
<path d="M0 0 C0.99 0 1.98 0 3 0 C2.96519531 0.68707031 2.93039062 1.37414063 2.89453125 2.08203125 C2.86746094 2.98308594 2.84039062 3.88414063 2.8125 4.8125 C2.77769531 5.70582031 2.74289062 6.59914063 2.70703125 7.51953125 C2.78961797 10.04292014 2.78961797 10.04292014 4.375 11.78125 C6.22787527 13.17090645 7.73315344 13.60916439 10 14 C10 15.65 10 17.3 10 19 C7.36 19 4.72 19 2 19 C-0.04898287 14.78103134 -0.21207997 11.34627854 -0.125 6.6875 C-0.10695312 5.43324219 -0.08890625 4.17898437 -0.0703125 2.88671875 C-0.03550781 1.45779297 -0.03550781 1.45779297 0 0 Z " fill="#11623E" transform="translate(4,10)"/>
<path d="M0 0 C0.66 0 1.32 0 2 0 C2.33 2.97 2.66 5.94 3 9 C5.91652174 9.16681109 5.91652174 9.16681109 9 9 C11.76223278 6.23776722 11.57856291 3.79293383 12 0 C12.99 0.33 13.98 0.66 15 1 C15.46233492 4.9760803 15.30954571 6.56851204 12.9375 9.875 C10 12 10 12 6.4375 12.5625 C3 12 3 12 0.5625 10.4375 C-1.54048663 7.15684085 -1.360388 4.82011276 -1 1 C-0.67 0.67 -0.34 0.34 0 0 Z " fill="#E9CE26" transform="translate(7,12)"/>
<path d="M0 0 C6.27 0 12.54 0 19 0 C19.33 0.99 19.66 1.98 20 3 C6.3667426 3.18451025 6.3667426 3.18451025 0 2 C0 1.34 0 0.68 0 0 Z " fill="#F0D7D8" transform="translate(7,4)"/>
<path d="M0 0 C1.98 0 3.96 0 6 0 C6 1.65 6 3.3 6 5 C4.125 6.0625 4.125 6.0625 2 7 C1.34 6.67 0.68 6.34 0 6 C0 4.02 0 2.04 0 0 Z " fill="#BFC1CE" transform="translate(11,13)"/>
<path d="M0 0 C2.97 0 5.94 0 9 0 C9 1.65 9 3.3 9 5 C6.1875 5.3125 6.1875 5.3125 3 5 C1.125 2.5 1.125 2.5 0 0 Z " fill="#EB5561" transform="translate(19,9)"/>
<path d="M0 0 C0.86625 0.7115625 0.86625 0.7115625 1.75 1.4375 C3.92582084 2.9484867 5.42602448 3.54036151 8 4 C8 4.99 8 5.98 8 7 C5.36 7 2.72 7 0 7 C-0.38133299 5.0085944 -0.71325582 3.00720923 -1 1 C-0.67 0.67 -0.34 0.34 0 0 Z " fill="#06673B" transform="translate(6,20)"/>
<path d="M0 0 C0.33 0.66 0.66 1.32 1 2 C3.31 2 5.62 2 8 2 C8 2.66 8 3.32 8 4 C1.375 7.125 1.375 7.125 -2 6 C-1.125 1.125 -1.125 1.125 0 0 Z " fill="#92BBA9" transform="translate(6,4)"/>
<path d="M0 0 C0.66 0 1.32 0 2 0 C2 1.32 2 2.64 2 4 C5.93075644 3.42547254 5.93075644 3.42547254 9 1 C8.67 2.65 8.34 4.3 8 6 C5.6875 6.6875 5.6875 6.6875 3 7 C1.1875 5.8125 1.1875 5.8125 0 4 C0 2.68 0 1.36 0 0 Z " fill="#CC4C36" transform="translate(9,15)"/>
</svg>
